<?xml version="1.0" standalone="no"?>
<!DOCTYPE svg PUBLIC "-//W3C//DTD SVG 20010904//EN"
 "http://www.w3.org/TR/2001/REC-SVG-20010904/DTD/svg10.dtd">
<svg version="1.0" xmlns="http://www.w3.org/2000/svg"
 width="114.000000pt" height="169.000000pt" viewBox="0 0 114.000000 169.000000"
 preserveAspectRatio="xMidYMid meet">

<g transform="translate(0.000000,169.000000) scale(0.100000,-0.100000)"
fill="#000000" stroke="none">
<path d="M675 1333 c-19 -21 -50 -60 -68 -88 -31 -48 -32 -52 -32 -160 0 -107
1 -114 33 -175 30 -57 61 -101 177 -252 40 -52 75 -137 75 -181 0 -100 -95
-129 -246 -74 -60 22 -145 46 -202 57 -90 17 -123 -12 -88 -78 40 -76 195
-162 336 -186 l35 -6 -39 33 c-27 24 -37 40 -33 51 5 14 26 16 146 16 77 0
150 4 163 9 13 5 44 17 71 26 61 22 92 74 84 143 -9 86 -115 261 -230 382 -75
79 -115 134 -149 206 -28 61 -32 78 -31 146 1 53 8 91 22 122 11 25 18 46 16
46 -2 0 -20 -17 -40 -37z"/>
</g>
</svg>
